<?xml version="1.0" encoding="utf-8"?>
<!-- Generator: Adobe Illustrator 15.0.0, SVG Export Plug-In . SVG Version: 6.00 Build 0)  -->
<!DOCTYPE svg PUBLIC "-//W3C//DTD SVG 1.1//EN" "http://www.w3.org/Graphics/SVG/1.1/DTD/svg11.dtd">
<svg version="1.1" id="Untitled-6.fw-Page_x25_201" xmlns="http://www.w3.org/2000/svg" xmlns:xlink="http://www.w3.org/1999/xlink"
	 x="0px" y="0px" width="248px" height="247px" viewBox="0 0 248 247" enable-background="new 0 0 248 247" xml:space="preserve">
<path fill="none" d="z"/>
<path fill="#FFFFFF" d="M113.394,131.115l-17.891,10.304l17.903-10.312L113.394,131.115z"/>
<path fill="#FFFFFF" d="M155,103.015l-62.692,36.064L123.584,157L155,138.999v-12.178l-30.888,17.617l-9.912-5.685l40.8-23.448
	V103.015z"/>
<path fill="#FFFFFF" d="M92,103.015v11.234l18.521,10.579l9.754-5.611L92,103.015z"/>
<path fill="#FFFFFF" d="M92,126.263v9.219l8.031-4.619L92,126.263z"/>
<path fill="none" d="z"/>
<g>
	<path fill="#FFFFFF" d="M70.681,12.281l5.87-2.6l0.75,1.693l-3.926,1.738l0.983,2.221l3.299-1.461l0.749,1.693l-3.299,1.461
		l1.405,3.172l-1.943,0.861L70.681,12.281z"/>
	<path fill="#FFFFFF" d="M86.389,6.143l2.437,7.043c0.421,1.219-0.113,2.318-1.332,2.74l-3.178,1.1
		c-1.206,0.418-2.307-0.117-2.728-1.336l-2.437-7.043l2.011-0.695l2.399,6.939c0.09,0.26,0.265,0.344,0.524,0.254l2.438-0.844
		c0.259-0.09,0.344-0.264,0.254-0.523l-2.399-6.939L86.389,6.143z"/>
	<path fill="#FFFFFF" d="M89.878,5.125l2.062-0.523l1.905,7.518l4.431-1.123l0.455,1.797l-6.492,1.646L89.878,5.125z"/>
	<path fill="#FFFFFF" d="M99.348,2.877l2.096-0.359l1.311,7.639l4.502-0.771l0.312,1.824l-6.597,1.133L99.348,2.877z"/>
	<path fill="#FFFFFF" d="M120.454,4.037l-0.044-1.164c-0.01-0.273-0.152-0.406-0.427-0.396l-2.576,0.098
		c-0.273,0.012-0.405,0.152-0.395,0.428l0.191,5.07c0.011,0.273,0.152,0.404,0.427,0.395l2.576-0.098
		c0.273-0.01,0.405-0.152,0.396-0.426l-0.044-1.166l2.124-0.08l0.048,1.275c0.049,1.287-0.782,2.184-2.07,2.232l-3.356,0.127
		c-1.274,0.049-2.171-0.783-2.22-2.07l-0.2-5.289c-0.049-1.289,0.782-2.184,2.057-2.232l3.357-0.127
		c1.287-0.049,2.184,0.781,2.232,2.07l0.048,1.273L120.454,4.037z"/>
	<path fill="#FFFFFF" d="M131.655,7.16l1.347,3.35l-2.33-0.115l-1.214-3.26l-1.548-0.074l-0.156,3.191l-2.124-0.104l0.47-9.592
		l5.221,0.256c1.288,0.062,2.109,0.969,2.046,2.256l-0.103,2.098C133.212,6.221,132.584,6.973,131.655,7.16z M131.237,3.074
		c0.013-0.273-0.117-0.418-0.392-0.432l-2.713-0.133l-0.132,2.699l2.713,0.133c0.274,0.014,0.418-0.115,0.431-0.391L131.237,3.074z"
		/>
	<path fill="#FFFFFF" d="M140.971,11.498l-3.331-0.461c-1.265-0.174-2.003-1.148-1.826-2.426l0.725-5.248
		c0.177-1.279,1.151-2.018,2.415-1.842l3.331,0.459c1.278,0.176,2.017,1.15,1.84,2.43l-0.725,5.248
		C143.224,10.936,142.249,11.674,140.971,11.498z M142.002,4.229c0.037-0.273-0.08-0.428-0.352-0.465l-2.556-0.354
		c-0.272-0.037-0.427,0.08-0.465,0.352l-0.694,5.031c-0.037,0.271,0.08,0.426,0.352,0.463l2.557,0.354
		c0.271,0.037,0.427-0.08,0.464-0.352L142.002,4.229z"/>
	<path fill="#FFFFFF" d="M154.011,10.531l-0.324,1.389c-0.292,1.258-1.33,1.902-2.573,1.613l-3.142-0.73
		c-1.256-0.293-1.902-1.332-1.609-2.588l0.195-0.842l2.072,0.482l-0.171,0.734c-0.062,0.268,0.04,0.432,0.308,0.494l2.379,0.555
		c0.268,0.062,0.433-0.041,0.494-0.307l0.274-1.178c0.062-0.268-0.04-0.432-0.308-0.494l-2.767-0.645
		c-1.243-0.289-1.89-1.328-1.597-2.584l0.32-1.377c0.293-1.256,1.331-1.902,2.574-1.613l3.141,0.732
		c1.257,0.293,1.902,1.33,1.61,2.588l-0.196,0.842l-2.072-0.482l0.172-0.736c0.062-0.268-0.041-0.432-0.308-0.494l-2.38-0.553
		c-0.267-0.062-0.432,0.039-0.494,0.307l-0.271,1.162c-0.062,0.268,0.04,0.434,0.308,0.496l2.767,0.643
		C153.657,8.236,154.304,9.273,154.011,10.531z"/>
	<path fill="#FFFFFF" d="M164.155,13.732l-0.447,1.355c-0.404,1.225-1.497,1.773-2.709,1.375l-3.062-1.012
		c-1.226-0.404-1.775-1.496-1.371-2.723l0.271-0.82l2.02,0.668l-0.236,0.717c-0.086,0.26,0.001,0.434,0.262,0.52l2.319,0.766
		c0.261,0.086,0.435-0.002,0.521-0.262l0.378-1.146c0.087-0.262-0.001-0.434-0.262-0.52l-2.697-0.893
		c-1.212-0.398-1.762-1.492-1.357-2.717l0.443-1.342c0.404-1.225,1.497-1.775,2.709-1.375l3.062,1.012
		c1.226,0.404,1.775,1.496,1.371,2.721l-0.271,0.822l-2.02-0.668l0.236-0.717c0.086-0.26-0.001-0.434-0.262-0.52l-2.319-0.766
		c-0.261-0.086-0.435,0.002-0.521,0.262l-0.374,1.133c-0.086,0.262,0.001,0.436,0.262,0.521l2.697,0.891
		C164.01,11.416,164.56,12.508,164.155,13.732z"/>
	<path fill="#FFFFFF" d="M169.404,9.334l5.906,2.514l-0.726,1.703l-3.949-1.682l-0.951,2.234l3.319,1.412l-0.726,1.703l-3.318-1.412
		L167.601,19l-1.956-0.834L169.404,9.334z"/>
	<path fill="#FFFFFF" d="M177.663,13.008l1.903,0.947l-4.272,8.598l-1.903-0.945L177.663,13.008z"/>
	<path fill="#FFFFFF" d="M181.922,15.121l6.668,3.836l-0.923,1.604l-2.412-1.387l-3.862,6.715l-1.843-1.059l3.862-6.717
		l-2.413-1.387L181.922,15.121z"/>
	<path fill="#FFFFFF" d="M206.526,37.453l1.624,1.576l-1.576,1.625l-1.624-1.576L206.526,37.453z"/>
	<path fill="#FFFFFF" d="M227.173,56.365l4.041,6.549l-1.576,0.973l-1.462-2.371l-6.596,4.07l-1.116-1.811l6.596-4.068l-1.462-2.369
		L227.173,56.365z"/>
	<path fill="#FFFFFF" d="M229.604,73.461l-2.236,2.832l-1.058-2.078l2.225-2.672l-0.703-1.383l-2.848,1.451l-0.965-1.895
		l8.555-4.357l2.372,4.656c0.586,1.148,0.208,2.311-0.941,2.896l-1.87,0.953C231.193,74.344,230.229,74.174,229.604,73.461z
		 M232.941,71.068c0.244-0.125,0.305-0.311,0.18-0.555l-1.232-2.42l-2.408,1.227l1.233,2.42c0.124,0.244,0.309,0.305,0.553,0.18
		L232.941,71.068z"/>
	<path fill="#FFFFFF" d="M231.422,86.094l-0.836-2.074l1.653-1.33l-1.216-3.018l-2.114,0.188l-0.81-2.012l10.082-0.674l0.975,2.418
		L231.422,86.094z M232.952,79.502l0.789,1.961l2.812-2.273L232.952,79.502z"/>
	<path fill="#FFFFFF" d="M241.133,85.047l0.662,2.02l-9.121,2.992l-0.663-2.02L241.133,85.047z"/>
	<path fill="#FFFFFF" d="M239.598,93.434l-5.516,1.4l-0.522-2.061l9.304-2.361l0.488,1.928l-4.646,4.828l5.516-1.398l0.523,2.059
		l-9.304,2.361l-0.489-1.928L239.598,93.434z"/>
	<path fill="#FFFFFF" d="M241.368,113.311l-0.374-3.383l-3.86,0.428l-0.234-2.115l9.549-1.057l0.234,2.113l-3.847,0.428l0.374,3.383
		l3.847-0.426l0.234,2.113l-9.549,1.059l-0.234-2.115L241.368,113.311z"/>
	<path fill="#FFFFFF" d="M238.083,126.723l-0.047-2.234l2.018-0.66l-0.069-3.252l-2.043-0.574l-0.046-2.168l9.669,2.939l0.055,2.605
		L238.083,126.723z M241.849,121.1l0.044,2.113l3.435-1.131L241.849,121.1z"/>
	<path fill="#FFFFFF" d="M240.895,134.77l-3.368,1.295l0.15-2.326l3.277-1.164l0.101-1.545l-3.189-0.207l0.138-2.121l9.581,0.619
		l-0.338,5.215c-0.083,1.287-1.001,2.094-2.287,2.01l-2.095-0.135C241.811,136.342,241.068,135.703,240.895,134.77z
		 M244.986,134.416c0.273,0.018,0.419-0.109,0.438-0.385l0.175-2.709l-2.696-0.174l-0.176,2.709c-0.018,0.273,0.11,0.42,0.385,0.438
		L244.986,134.416z"/>
	<path fill="#FFFFFF" d="M236.414,144.037l0.839-5.441l9.495,1.465l-0.838,5.439c-0.197,1.275-1.184,1.998-2.458,1.801l-5.236-0.807
		C236.94,146.297,236.218,145.311,236.414,144.037z M243.667,145.182c0.271,0.041,0.428-0.072,0.47-0.344l0.456-2.957l-5.833-0.9
		l-0.456,2.959c-0.041,0.27,0.073,0.428,0.345,0.469L243.667,145.182z"/>
	<path fill="#FFFFFF" d="M234.426,171.805l-0.903,2.074l-2.075-0.904l0.904-2.074L234.426,171.805z"/>
	<path fill="#FFFFFF" d="M212.49,196.875l3.402-4.326l7.552,5.938l-3.402,4.326c-0.798,1.014-2.012,1.16-3.025,0.361l-4.165-3.273
		C211.838,199.102,211.692,197.889,212.49,196.875z M218.245,201.436c0.216,0.168,0.408,0.146,0.578-0.07l1.85-2.352l-4.639-3.648
		l-1.85,2.352c-0.17,0.217-0.147,0.408,0.068,0.578L218.245,201.436z"/>
	<path fill="#FFFFFF" d="M205.552,204.672l2.311-2.441c0.877-0.926,2.099-0.959,3.036-0.074l3.846,3.641
		c0.937,0.887,0.97,2.107,0.093,3.035l-2.31,2.441c-0.887,0.936-2.108,0.971-3.045,0.084l-3.847-3.641
		C204.699,206.83,204.666,205.609,205.552,204.672z M210.864,209.736c0.199,0.189,0.393,0.184,0.582-0.016l1.772-1.873
		c0.188-0.199,0.184-0.393-0.016-0.582l-3.688-3.488c-0.199-0.189-0.393-0.184-0.581,0.016l-1.773,1.873
		c-0.188,0.199-0.183,0.393,0.017,0.582L210.864,209.736z"/>
	<path fill="#FFFFFF" d="M204.228,213.865l-3.768-4.268l1.594-1.408l6.355,7.199l-1.491,1.316l-6.421-1.926l3.768,4.268
		l-1.594,1.408l-6.355-7.199l1.491-1.316L204.228,213.865z"/>
	<path fill="#FFFFFF" d="M200.871,223.857l-1.795,1.381l-1.688-3.549l1.143-0.877L200.871,223.857z"/>
	<path fill="#FFFFFF" d="M196.012,225.598l-6.378,4.307l-1.036-1.535l2.308-1.557l-4.336-6.424l1.762-1.189l4.336,6.422l2.309-1.557
		L196.012,225.598z"/>
	<path fill="#FFFFFF" d="M172.748,232.219l-0.637-1.277c-0.575-1.154-0.187-2.314,0.956-2.883l2.887-1.438
		c1.154-0.576,2.313-0.188,2.889,0.967l0.386,0.773l-1.904,0.949l-0.336-0.676c-0.123-0.246-0.307-0.307-0.553-0.186l-2.187,1.09
		c-0.245,0.123-0.307,0.307-0.185,0.553l0.538,1.08c0.123,0.246,0.307,0.307,0.553,0.186l2.542-1.268
		c1.143-0.568,2.302-0.18,2.877,0.975l0.631,1.266c0.575,1.154,0.187,2.312-0.956,2.883l-2.887,1.438
		c-1.154,0.574-2.313,0.188-2.889-0.969l-0.386-0.773l1.904-0.947l0.336,0.676c0.123,0.244,0.307,0.307,0.553,0.184l2.186-1.088
		c0.246-0.123,0.308-0.307,0.186-0.553l-0.532-1.068c-0.123-0.246-0.307-0.309-0.553-0.186l-2.542,1.268
		C174.482,233.762,173.323,233.373,172.748,232.219z"/>
	<path fill="#FFFFFF" d="M172.88,238.754l-7.147,2.842l-0.684-1.719l2.586-1.029l-2.862-7.199l1.975-0.785l2.862,7.199l2.587-1.029
		L172.88,238.754z"/>
	<path fill="#FFFFFF" d="M155.025,234.928l3.219-0.971c1.222-0.369,2.3,0.207,2.673,1.443l1.531,5.07
		c0.373,1.234-0.205,2.312-1.427,2.682l-3.219,0.973c-1.235,0.373-2.312-0.205-2.686-1.439l-1.531-5.072
		C153.213,236.379,153.791,235.301,155.025,234.928z M157.122,241.965c0.079,0.262,0.25,0.354,0.513,0.275l2.47-0.746
		c0.263-0.08,0.354-0.25,0.275-0.514l-1.468-4.861c-0.079-0.262-0.251-0.354-0.514-0.275l-2.47,0.746
		c-0.263,0.08-0.354,0.252-0.274,0.514L157.122,241.965z"/>
	<path fill="#FFFFFF" d="M145.785,240.418l3.035-0.631l-0.65-3.129l2.081-0.432l1.955,9.398l-5.116,1.064
		c-1.263,0.262-2.284-0.408-2.547-1.67l-0.427-2.055C143.854,241.703,144.523,240.682,145.785,240.418z M146.603,244.479
		c0.056,0.27,0.218,0.375,0.486,0.32l2.658-0.553l-0.55-2.646l-2.659,0.553c-0.268,0.057-0.374,0.219-0.318,0.486L146.603,244.479z"
		/>
	<path fill="#FFFFFF" d="M113.229,244.84l-2.254-0.211l0.212-2.254l2.253,0.211L113.229,244.84z"/>
	<path fill="#FFFFFF" d="M78.494,236.346l2.203-5.248l1.961,0.822l-3.717,8.855l-1.835-0.77l-1.06-6.621l-2.204,5.25l-1.96-0.822
		l3.717-8.855l1.834,0.77L78.494,236.346z"/>
	<path fill="#FFFFFF" d="M68.23,225.184l2.968,1.578c1.127,0.598,1.484,1.768,0.879,2.906l-2.485,4.676
		c-0.605,1.139-1.774,1.496-2.9,0.898l-2.969-1.578c-1.139-0.605-1.496-1.773-0.891-2.912l2.485-4.678
		C65.923,224.936,67.092,224.578,68.23,225.184z M64.761,231.652c-0.129,0.242-0.072,0.428,0.171,0.557l2.277,1.211
		c0.242,0.129,0.428,0.072,0.557-0.17l2.383-4.484c0.129-0.242,0.071-0.428-0.171-0.557L67.7,227
		c-0.242-0.129-0.428-0.072-0.557,0.17L64.761,231.652z"/>
	<path fill="#FFFFFF" d="M53.276,219.365l2.517,1.811l1.867-2.596l1.727,1.242l-5.608,7.797l-4.243-3.051
		c-1.048-0.754-1.244-1.961-0.491-3.008l1.226-1.703C51.022,218.811,52.229,218.613,53.276,219.365z M50.834,222.713
		c-0.16,0.223-0.129,0.416,0.094,0.576l2.206,1.586l1.578-2.195l-2.206-1.586c-0.223-0.16-0.414-0.129-0.574,0.094L50.834,222.713z"
		/>
	<path fill="#FFFFFF" d="M45.386,208.742l1.696,1.457l-0.855,1.943l2.467,2.119l1.791-1.139l1.645,1.414l-8.643,5.236l-1.977-1.699
		L45.386,208.742z M47.06,215.301l-1.603-1.377l-1.452,3.311L47.06,215.301z"/>
	<path fill="#FFFFFF" d="M37.237,214.139l-1.518-1.49l6.729-6.855l1.519,1.488L37.237,214.139z"/>
	<path fill="#FFFFFF" d="M34.742,205.984l4.249-3.787l1.414,1.588l-7.167,6.387l-1.323-1.484l1.896-6.428l-4.249,3.785l-1.414-1.586
		l7.167-6.387l1.322,1.484L34.742,205.984z"/>
	<path fill="#FFFFFF" d="M24.392,192.998l4.73-3.166l1.183,1.768l-7.979,5.34l-1.106-1.652l2.762-6.107l-4.73,3.166l-1.182-1.766
		l7.979-5.342l1.106,1.652L24.392,192.998z"/>
	<path fill="#FFFFFF" d="M21.964,178.006l1.607,2.953c0.61,1.121,0.264,2.295-0.869,2.91l-4.653,2.533
		c-1.133,0.617-2.306,0.271-2.916-0.85l-1.607-2.953c-0.617-1.135-0.271-2.307,0.862-2.924l4.653-2.533
		C20.174,176.527,21.347,176.873,21.964,178.006z M15.501,181.492c-0.241,0.131-0.296,0.316-0.164,0.559l1.233,2.266
		c0.131,0.242,0.317,0.297,0.559,0.166l4.46-2.428c0.241-0.133,0.296-0.318,0.164-0.559l-1.233-2.268
		c-0.131-0.24-0.317-0.295-0.558-0.164L15.501,181.492z"/>
	<path fill="#FFFFFF" d="M14.833,161.533l0.552,1.463l-0.562,0.533c0.555,0.188,1.006,0.646,1.253,1.301l0.701,1.861
		c0.45,1.193-0.054,2.307-1.26,2.762l-4.954,1.867c-1.206,0.455-2.319-0.049-2.769-1.242l-1.186-3.145
		c-0.454-1.207,0.049-2.32,1.256-2.773l0.937-0.354l0.75,1.988l-0.835,0.314c-0.256,0.098-0.336,0.273-0.239,0.531l0.909,2.412
		c0.097,0.256,0.273,0.336,0.53,0.24l4.748-1.791c0.257-0.096,0.337-0.273,0.24-0.529l-0.91-2.412
		c-0.097-0.258-0.273-0.338-0.529-0.24l-1.13,0.426l0.716,1.898l-1.732,0.654l-1.466-3.889L14.833,161.533z"/>
	<path fill="#FFFFFF" d="M11.816,151.064l0.597,2.156l-1.793,1.137l0.868,3.135l2.122,0.055l0.579,2.09l-10.1-0.467l-0.695-2.514
		L11.816,151.064z M9.552,157.445l-0.563-2.037l-3.052,1.941L9.552,157.445z"/>
	<path fill="#FFFFFF" d="M2.041,151.002l-0.43-2.084l9.41-1.943l0.43,2.084L2.041,151.002z"/>
	<path fill="#FFFFFF" d="M4.519,142.854l5.642-0.773l0.289,2.107l-9.518,1.303l-0.27-1.971l5.162-4.281l-5.643,0.773l-0.288-2.107
		l9.517-1.303l0.27,1.971L4.519,142.854z"/>
	<path fill="#FFFFFF" d="M3.64,111.57l0.267-2.25l2.248,0.268l-0.267,2.248L3.64,111.57z"/>
	<path fill="#FFFFFF" d="M14.697,83.08l1.458-3.746l1.726,0.672l-2.477,6.367l-1.727-0.672l-2.137-5.748
		c-0.033-0.102-0.121-0.18-0.262-0.234l-1.01-0.393c-0.256-0.1-0.434-0.021-0.533,0.234L9.1,81.197
		C9,81.453,9.078,81.631,9.334,81.73l1.343,0.521l-0.771,1.982l-1.444-0.562c-1.202-0.467-1.694-1.586-1.227-2.789l0.92-2.365
		c0.463-1.189,1.582-1.682,2.783-1.213l0.959,0.373c0.704,0.273,1.121,0.789,1.336,1.373L14.697,83.08z"/>
	<path fill="#FFFFFF" d="M21.207,72.965l-1.242,2.523c-0.563,1.146-1.721,1.541-2.878,0.971l-4.754-2.338
		c-1.157-0.57-1.552-1.727-0.988-2.873l1.242-2.523c0.569-1.158,1.727-1.553,2.885-0.982l4.753,2.338
		C21.382,70.65,21.776,71.807,21.207,72.965z M14.631,69.699c-0.246-0.121-0.43-0.059-0.551,0.188l-0.897,1.822
		c-0.121,0.246-0.059,0.43,0.188,0.551l4.556,2.242c0.246,0.121,0.43,0.059,0.551-0.188l0.897-1.822
		c0.121-0.246,0.059-0.43-0.188-0.551L14.631,69.699z"/>
	<path fill="#FFFFFF" d="M25.504,65.244l-1.076,1.834l-6.43-3.77l0.238,2.605l-1.858-1.09l-0.238-2.605l1.076-1.836L25.504,65.244z"
		/>
	<path fill="#FFFFFF" d="M28.124,58.561l-2.664,3.879l-1.526-1.049l-2.53-7.412l1.22-1.775l5.179,3.557l0.621-0.904l1.526,1.049
		l-0.621,0.904l1.21,0.832l-1.204,1.752L28.124,58.561z M26.598,57.512l-2.736-1.879l1.369,3.869L26.598,57.512z"/>
	<path fill="#FFFFFF" d="M43.312,34.73l1.705-1.492l1.49,1.705l-1.704,1.49L43.312,34.73z"/>
</g>
</svg>
