<?xml version="1.0" standalone="no"?><!-- Generator: Adobe Fireworks CS6, Export SVG Extension by Aaron Beall (http://fireworks.abeall.com) . Version: 0.6.1  --><!DOCTYPE svg PUBLIC "-//W3C//DTD SVG 1.1//EN" "http://www.w3.org/Graphics/SVG/1.1/DTD/svg11.dtd"><svg id="Untitled-7.fw-Page%201" viewBox="0 0 92 104" style="background-color:#ffffff00" version="1.1"	xmlns="http://www.w3.org/2000/svg" xmlns:xlink="http://www.w3.org/1999/xlink" xml:space="preserve"	x="0px" y="0px" width="92px" height="104px">	<g id="Layer%201">		<g>			<path id="Polygon" d="M 46 104 L 0.9667 78 L 0.9667 26 L 46 0 L 91.0333 26 L 91.0333 78 L 46 104 Z" fill="#000000"/>			<g>				<path d="M 37.3076 55.7646 L 21.5186 64.8799 L 37.3213 55.7578 L 37.3076 55.7646 Z" fill="#ffffff"/>				<path d="M 21.3955 34.3682 L 21.3955 43.2842 L 37.29 52.4326 L 44.958 47.9736 L 21.3955 34.3682 Z" fill="#ffffff"/>				<path d="M 21.3955 52.8193 L 21.3955 61.6719 L 29.0361 57.2295 L 21.3955 52.8193 Z" fill="#ffffff"/>				<path d="M 71.0068 36.3096 L 38.5693 55.0361 L 38.5732 55.04 L 37.3213 55.7578 L 21.5186 64.8799 L 46.2637 79.167 L 71.0068 64.8799 L 71.0068 55.2158 L 46.6787 69.1973 L 38.8711 64.6855 L 71.0068 46.0752 L 71.0068 36.3096 Z" fill="#ffffff"/>			</g>		</g>	</g></svg>