<?xml version="1.0" encoding="utf-8"?>
<!-- Generator: Adobe Illustrator 15.0.0, SVG Export Plug-In . SVG Version: 6.00 Build 0)  -->
<!DOCTYPE svg PUBLIC "-//W3C//DTD SVG 1.1//EN" "http://www.w3.org/Graphics/SVG/1.1/DTD/svg11.dtd">
<svg version="1.1" id="FC_x5F_Logo_x5F_Verical_x5F_1-Page_x25_201"
	 xmlns="http://www.w3.org/2000/svg" xmlns:xlink="http://www.w3.org/1999/xlink" x="0px" y="0px" width="243px" height="360.5px"
	 viewBox="0 0 243 360.5" enable-background="new 0 0 243 360.5" xml:space="preserve">
<path fill="none" d="z"/>
<g>
	<path fill="#FFFFFF" d="M74.463,357.379l-2.311-2.412c-1.297,1.212-2.453,1.988-4.339,1.988c-2.83,0-4.788-2.424-4.788-5.332
		v-0.049c0-2.908,2.005-5.28,4.788-5.28c1.651,0,2.948,0.724,4.221,1.911l2.311-2.761c-1.533-1.599-3.396-2.696-6.509-2.696
		c-5.046,0-8.239,4.051-8.239,8.875v0.047c0,4.873,3.257,8.83,8.098,8.83C70.879,360.5,72.765,359.301,74.463,357.379
		L74.463,357.379z"/>
	<path fill="#FFFFFF" d="M92.142,360.383l-3.792-5.816c1.957-0.824,3.297-2.597,3.297-5.709v-0.055c0-3.846-2.176-6.017-5.837-6.017
		h-7.132v17.597h3.428v-5.167h2.7l3.346,5.167H92.142L92.142,360.383z M88.218,349.08c0,1.632-0.958,2.739-2.631,2.739h-3.48v-5.562
		h3.414c1.673,0,2.698,0.94,2.698,2.768V349.08L88.218,349.08z"/>
	<path fill="#FFFFFF" d="M111.919,351.623v-0.049c0-4.824-3.301-8.826-8.844-8.826c-5.552,0-8.895,4.051-8.895,8.875v0.047
		c0,4.824,3.3,8.83,8.843,8.83C108.576,360.5,111.919,356.445,111.919,351.623L111.919,351.623z M108.491,351.67
		c0,2.91-2.218,5.285-5.416,5.285c-3.197,0-5.466-2.424-5.466-5.332v-0.049c0-2.908,2.218-5.28,5.415-5.28s5.467,2.419,5.467,5.329
		V351.67L108.491,351.67z"/>
	<path fill="#FFFFFF" d="M127.422,355.076v-0.049c0-2.943-1.793-4.174-5.344-5.065c-3.362-0.749-4.196-1.109-4.196-2.22v-0.048
		c0-0.82,0.861-1.476,2.5-1.476c1.64,0,3.334,0.631,4.775,1.668l1.793-2.842c-1.591-1.424-3.679-2.222-6.513-2.222
		c-3.7,0-5.985,2.097-5.985,5.209v0.048c0,3.353,2.038,4.294,5.624,5.162c3.251,0.724,3.917,1.207,3.917,2.147v0.047
		c0,0.989-1.055,1.593-2.806,1.593c-2.223,0-3.913-0.797-5.324-2.051l-2.071,2.649c1.915,1.874,4.367,2.797,7.312,2.797
		C125.047,360.425,127.422,358.478,127.422,355.076L127.422,355.076z"/>
	<path fill="#FFFFFF" d="M141.732,355.076v-0.049c0-2.943-1.793-4.174-5.344-5.065c-3.363-0.749-4.196-1.109-4.196-2.22v-0.048
		c0-0.82,0.861-1.476,2.501-1.476c1.639,0,3.334,0.631,4.775,1.668l1.793-2.842c-1.591-1.424-3.679-2.222-6.513-2.222
		c-3.7,0-5.985,2.097-5.985,5.209v0.048c0,3.353,2.039,4.294,5.624,5.162c3.251,0.724,3.917,1.207,3.917,2.147v0.047
		c0,0.989-1.055,1.593-2.806,1.593c-2.224,0-3.913-0.797-5.323-2.051l-2.072,2.649c1.915,1.874,4.367,2.797,7.312,2.797
		C139.357,360.425,141.732,358.478,141.732,355.076L141.732,355.076z"/>
	<path fill="#FFFFFF" d="M157.826,346.269v-3.496h-12.367v17.609h3.429v-6.38h7.877v-3.496h-7.877v-4.237H157.826L157.826,346.269z"
		/>
	<path fill="#FFFFFF" d="M164.391,360.383v-17.518h-3.428v17.518H164.391L164.391,360.383z"/>
	<path fill="#FFFFFF" d="M181.34,346.294v-3.546h-13.475v3.546h5.022v14.089h3.429v-14.089H181.34L181.34,346.294z"/>
</g>
<path fill="#FFFFFF" d="M242.963,0.494L2.032,140.603l120.198,69.621l120.732-69.932V92.98l-118.707,68.443l-38.089-22.085
	l156.796-91.097V0.494z"/>
<path fill="#F2E51F" d="M0.849,0.436V44.08l71.181,41.094l37.487-21.797L0.849,0.436z"/>
<path fill="#F2E51F" d="M0.849,90.754v35.816l30.863-17.947L0.849,90.754z"/>
<path fill="none" d="z"/>
<g>
	<path fill="#FFFFFF" d="M18.208,294.026v34.424H1.226v-87.425h16.982v36.701h21.655v16.3H18.208z M23.34,257.439v-16.414h33.052
		v16.414H23.34z"/>
	<path fill="#FFFFFF" d="M79.64,328.45l-11.854-11.853v-75.572h16.87v71.013h10.941v16.412H79.64z M116.68,328.45h-15.957v-16.412
		h10.943v-71.013h16.984v75.572L116.68,328.45z"/>
	<path fill="#FFFFFF" d="M140.952,328.45v-87.425h16.984v87.425H140.952z M163.063,328.45v-16.412h23.71v16.412H163.063z"/>
	<path fill="#FFFFFF" d="M197.14,328.45v-87.425h16.986v87.425H197.14z M219.253,328.45v-16.412h23.71v16.412H219.253z"/>
</g>
</svg>
