<?xml version="1.0" encoding="utf-8"?>
<!-- Generator: Adobe Illustrator 15.0.0, SVG Export Plug-In . SVG Version: 6.00 Build 0)  -->
<!DOCTYPE svg PUBLIC "-//W3C//DTD SVG 1.1//EN" "http://www.w3.org/Graphics/SVG/1.1/DTD/svg11.dtd">
<svg version="1.1" id="Untitled-Page_x25_201" xmlns="http://www.w3.org/2000/svg" xmlns:xlink="http://www.w3.org/1999/xlink"
	 x="0px" y="0px" width="224.75px" height="23px" viewBox="0 0 224.75 23" enable-background="new 0 0 224.75 23"
	 xml:space="preserve">
<path fill="none" d="z"/>
<path fill="#F2E51F" d="M45.646,0.256L21.195,15.283l12.199,7.467l12.252-7.5v-5.074L33.6,17.516l-3.866-2.367l15.912-9.771V0.256z"
	/>
<path fill="#FFFFFF" d="M21.075,0.25v4.681l7.224,4.408L32.103,7L21.075,0.25z"/>
<path fill="#FFFFFF" d="M21.075,9.937v3.841l3.132-1.925L21.075,9.937z"/>
<path fill="#FFFFFF" d="M104.266,18.407l-1.473-1.474c-1.898,1.85-3.682,2.918-6.401,2.918c-4.362,0-7.675-3.67-7.675-8.379
	c0-4.71,3.286-8.324,7.675-8.324c2.69,0,4.559,1.158,6.231,2.776l1.529-1.676C102.17,2.324,100.018,1,96.42,1
	c-5.834,0-9.847,4.751-9.847,10.53c0,5.837,4.041,10.47,9.762,10.47C99.932,22,102.197,20.559,104.266,18.407L104.266,18.407z"/>
<path fill="#FFFFFF" d="M123.609,21.908l-5.992-8.227c3.141-0.588,5.283-2.644,5.283-6.293c0-3.93-2.688-6.389-7.082-6.389h-8.478
	v20.908h2.144v-7.814h5.707l5.781,7.814H123.609L123.609,21.908z M120.758,7.482c0,2.838-2.143,4.522-5.139,4.522h-6.135V3.148
	h6.164C118.872,3.148,120.758,4.769,120.758,7.482L120.758,7.482z"/>
<path fill="#FFFFFF" d="M145.904,11.472c0-5.605-3.891-10.472-9.988-10.472s-10.045,4.924-10.045,10.53
	c0,5.606,3.889,10.47,9.987,10.47C141.956,22,145.904,17.078,145.904,11.472L145.904,11.472z M143.761,11.53
	c0,4.624-3.265,8.322-7.845,8.322c-4.581,0-7.902-3.756-7.902-8.379c0-4.623,3.264-8.324,7.845-8.324S143.761,6.907,143.761,11.53
	L143.761,11.53z"/>
<path fill="#FFFFFF" d="M151.018,6.424c0-1.856,1.679-3.306,4.312-3.306c2.084,0,3.966,0.667,5.818,2.204l1.232-1.77
	c-1.928-1.67-4.04-2.524-6.992-2.524c-3.851,0-6.515,2.35-6.515,5.598c0,3.364,2.007,4.873,6.659,5.888
	c4.255,0.898,5.268,1.971,5.268,3.885c0,2.061-1.795,3.48-4.516,3.48c-2.808,0-4.834-0.957-6.842-2.871l-1.362,1.682
	c2.312,2.19,4.904,3.279,8.118,3.279c4.023,0,6.744-2.293,6.744-5.802c0-3.132-1.929-4.785-6.426-5.771
	C152.059,9.441,151.018,8.368,151.018,6.424L151.018,6.424z"/>
<path fill="#FFFFFF" d="M168.057,6.424c0-1.856,1.68-3.306,4.313-3.306c2.084,0,3.966,0.667,5.818,2.204l1.231-1.77
	c-1.927-1.67-4.039-2.524-6.992-2.524c-3.85,0-6.514,2.35-6.514,5.598c0,3.364,2.008,4.873,6.658,5.888
	c4.256,0.898,5.268,1.971,5.268,3.885c0,2.061-1.794,3.48-4.515,3.48c-2.808,0-4.834-0.957-6.842-2.871l-1.362,1.682
	c2.312,2.19,4.904,3.279,8.117,3.279c4.023,0,6.745-2.293,6.745-5.802c0-3.132-1.929-4.785-6.427-5.771
	C169.1,9.441,168.057,8.368,168.057,6.424L168.057,6.424z"/>
<path fill="#FFFFFF" d="M197.85,1h-14.15v20.908h2.143v-8.574h10.734v-2.119h-10.734V3.148h12.008V1L197.85,1z"/>
<path fill="#FFFFFF" d="M201.484,1.092v20.816h2.143V1.092H201.484L201.484,1.092z"/>
<path fill="#FFFFFF" d="M216.195,3.148h6.654V1h-15.453v2.148h6.655v18.76h2.144V3.148L216.195,3.148z"/>
<path fill="none" d="z"/>
<g>
	<g>
		<rect x="6.883" y="0.41" fill="#FFFFFF" width="9.338" height="4.28"/>
		<polygon fill="#FFFFFF" points="5.61,0.41 0.9,0.41 0.9,21.816 5.61,21.816 5.61,13.527 16.221,13.527 16.221,9.247 5.61,9.247 		
			"/>
	</g>
</g>
<g>
	<rect x="56.871" y="17.598" fill="#FFFFFF" width="7.066" height="4.274"/>
	<polygon fill="#FFFFFF" points="55.604,0.496 50.902,0.496 50.902,21.872 55.613,21.872 	"/>
</g>
<g>
	<rect x="74.593" y="17.598" fill="#FFFFFF" width="7.074" height="4.274"/>
	<rect x="68.631" y="0.497" fill="#FFFFFF" width="4.702" height="21.375"/>
</g>
</svg>
