<?xml version="1.0" encoding="utf-8"?>
<!-- Generator: Adobe Illustrator 15.0.0, SVG Export Plug-In . SVG Version: 6.00 Build 0)  -->
<!DOCTYPE svg PUBLIC "-//W3C//DTD SVG 1.1//EN" "http://www.w3.org/Graphics/SVG/1.1/DTD/svg11.dtd">
<svg version="1.1" id="Layer_1" xmlns="http://www.w3.org/2000/svg" xmlns:xlink="http://www.w3.org/1999/xlink" x="0px" y="0px"
	 width="1180px" height="935.39px" viewBox="0 0 1180 935.39" enable-background="new 0 0 1180 935.39" xml:space="preserve">
<g>
	<rect x="11" y="128.39" fill-rule="evenodd" clip-rule="evenodd" fill="#FFFFFF" width="1157.999" height="796"/>
	<path d="M1180,935.39H0v-818H1180V935.39z M22,913.39H1158v-774H22V913.39z"/>
</g>
<g>
	<g>
		<polygon fill="#F2E51F" points="939.6,234.26 243.82,638.71 590.94,839.69 939.6,637.82 939.6,501.24 596.79,698.82 
			486.79,635.07 939.6,372.09 		"/>
		<polygon fill="#F2E51F" points="240.4,234.09 240.4,360.08 445.96,478.71 554.22,415.78 		"/>
		<polygon fill="#F2E51F" points="240.4,494.81 240.4,598.2 329.53,546.4 		"/>
	</g>
</g>
<g>
	<rect x="424.5" y="112.39" fill-rule="evenodd" clip-rule="evenodd" fill="#FFFFFF" width="331" height="28"/>
</g>
<g>
	<path d="M255.71,557.03l-15.12-14.976v-80.495l15.12-14.976h19.44v20.735h-13.104v68.975h13.104v20.735H255.71z M294.734,489.639
		v-22.32H281.63v-20.735h19.439l15.12,14.976v28.08H294.734z M301.07,557.03H281.63v-20.735h13.104v-22.32h21.456v28.08
		L301.07,557.03z"/>
	<path d="M339.229,557.03V446.584h21.456V557.03H339.229z M393.66,557.03l-13.68-42.047h-12.816v-20.735h26.208v-26.928h-26.208
		v-20.735h32.543l15.12,14.976v37.007l-14.544,14.688l14.976,43.775H393.66z"/>
	<path d="M450.539,557.03l-14.976-14.976v-80.495l14.976-14.976h20.16v20.735h-13.824v68.975h13.824v20.735H450.539z
		 M497.338,557.03h-20.16v-20.735h13.824v-68.975h-13.824v-20.735h20.16l15.12,14.976v80.495L497.338,557.03z"/>
	<path d="M595.976,557.03h-19.439v-20.735h13.104v-20.16l-41.615-9.36l-12.527-13.392v-31.823l15.12-14.976h19.439v20.735h-13.104
		v20.16l41.903,9.648l12.24,13.104v31.824L595.976,557.03z M550.617,557.03l-15.12-14.976V522.47h21.455v13.824h13.104v20.735
		H550.617z M589.64,481.143v-13.824h-13.104v-20.735h19.439l15.12,14.976v19.583H589.64z"/>
	<path d="M693.895,557.03h-19.439v-20.735h13.104v-20.16l-41.615-9.36l-12.527-13.392v-31.823l15.12-14.976h19.439v20.735h-13.104
		v20.16l41.903,9.648l12.24,13.104v31.824L693.895,557.03z M648.536,557.03l-15.12-14.976V522.47h21.455v13.824h13.104v20.735
		H648.536z M687.559,481.143v-13.824h-13.104v-20.735h19.439l15.12,14.976v19.583H687.559z"/>
	<path d="M754.23,513.542v43.487h-21.456V446.584h21.456v46.367h27.359v20.591H754.23z M760.71,467.319v-20.735h41.759v20.735
		H760.71z"/>
	<path d="M822.053,557.03V446.584h21.456V557.03H822.053z"/>
	<path d="M862.228,467.319v-20.735h24.624v20.735H862.228z M893.331,557.03V446.584h21.456V557.03H893.331z M921.267,467.319
		v-20.735h24.624v20.735H921.267z"/>
</g>
<g>
	<path fill="#151515" d="M514.871,392.964v21.746h-10.729v-55.229h10.729v23.186h13.681v10.297H514.871z M518.111,369.85v-10.369
		h20.882v10.369H518.111z"/>
	<path fill="#151515" d="M555.19,414.71l-7.489-7.489v-47.74h10.657v44.86h6.913v10.369H555.19z M578.592,414.71h-10.081v-10.369
		h6.913v-44.86h10.729v47.74L578.592,414.71z"/>
	<path fill="#151515" d="M598.388,414.71v-55.229h10.729v55.229H598.388z M612.357,414.71v-10.369h21.818v10.369H612.357z"/>
	<path fill="#151515" d="M643.604,414.71v-55.229h10.729v55.229H643.604z M657.573,414.71v-10.369h21.818v10.369H657.573z"/>
</g>
<g>
	<polygon fill="#1C1C1A" points="617.655,105.11 562.615,137.01 590.075,152.87 617.655,136.94 617.655,126.17 590.535,141.76 
		581.835,136.73 617.655,115.98 	"/>
	<polygon fill="#1C1C1A" points="562.345,105.09 562.345,115.03 578.604,124.39 587.165,119.43 	"/>
	<polygon fill="#1C1C1A" points="562.345,125.66 562.345,133.82 569.395,129.73 	"/>
</g>
<g>
	<polygon fill-rule="evenodd" clip-rule="evenodd" fill="#1C1C1A" points="536.925,11.67 542.795,9.07 543.545,10.77 539.625,12.5 
		540.604,14.72 543.905,13.26 544.655,14.96 541.354,16.42 542.755,19.59 540.814,20.45 	"/>
	<path fill-rule="evenodd" clip-rule="evenodd" fill="#1C1C1A" d="M552.635,5.53l2.44,7.05c0.42,1.21-0.12,2.31-1.34,2.74
		l-3.171,1.1c-1.21,0.41-2.31-0.12-2.729-1.34l-2.44-7.04l2.011-0.7l2.399,6.94c0.09,0.26,0.271,0.34,0.53,0.25l2.43-0.84
		c0.26-0.09,0.351-0.26,0.26-0.52l-2.399-6.94L552.635,5.53z"/>
	<polygon fill-rule="evenodd" clip-rule="evenodd" fill="#1C1C1A" points="556.125,4.51 558.185,3.99 560.095,11.51 564.524,10.39 
		564.975,12.18 558.485,13.83 	"/>
	<polygon fill-rule="evenodd" clip-rule="evenodd" fill="#1C1C1A" points="565.595,2.27 567.685,1.91 568.995,9.55 573.505,8.77 
		573.814,10.6 567.215,11.73 	"/>
	<path fill-rule="evenodd" clip-rule="evenodd" fill="#1C1C1A" d="M586.695,3.43l-0.04-1.17c-0.011-0.27-0.15-0.4-0.431-0.39
		l-2.569,0.09c-0.28,0.02-0.41,0.16-0.4,0.43l0.19,5.07c0.01,0.28,0.159,0.41,0.43,0.4l2.58-0.1c0.27-0.01,0.399-0.15,0.39-0.43
		l-0.04-1.16l2.12-0.08l0.05,1.27c0.05,1.29-0.779,2.19-2.069,2.24l-3.36,0.12c-1.271,0.05-2.17-0.78-2.22-2.07l-0.2-5.29
		c-0.05-1.29,0.79-2.18,2.06-2.23l3.36-0.13c1.28-0.05,2.18,0.78,2.229,2.07l0.051,1.28L586.695,3.43z"/>
	<path fill-rule="evenodd" clip-rule="evenodd" fill="#1C1C1A" d="M597.485,2.46c0.01-0.27-0.12-0.41-0.391-0.43l-2.72-0.13
		l-0.13,2.7l2.71,0.13c0.28,0.02,0.42-0.11,0.43-0.39L597.485,2.46z M597.905,6.55l1.34,3.35l-2.33-0.12l-1.21-3.26l-1.55-0.07
		l-0.16,3.19l-2.12-0.1l0.47-9.59l5.22,0.25c1.29,0.07,2.11,0.97,2.051,2.26l-0.11,2.1C599.455,5.61,598.825,6.36,597.905,6.55z"/>
	<path fill-rule="evenodd" clip-rule="evenodd" fill="#1C1C1A" d="M608.245,3.62c0.04-0.27-0.08-0.43-0.351-0.47l-2.56-0.35
		c-0.271-0.04-0.42,0.08-0.46,0.35l-0.69,5.03c-0.04,0.27,0.08,0.43,0.351,0.47l2.55,0.35c0.28,0.04,0.43-0.08,0.47-0.35
		L608.245,3.62z M607.215,10.89l-3.33-0.46c-1.26-0.18-2-1.15-1.83-2.43l0.73-5.25c0.17-1.28,1.149-2.01,2.41-1.84l3.329,0.46
		c1.28,0.18,2.021,1.15,1.841,2.43l-0.721,5.25C609.465,10.33,608.495,11.06,607.215,10.89z"/>
	<path fill-rule="evenodd" clip-rule="evenodd" fill="#1C1C1A" d="M620.255,9.92l-0.32,1.39c-0.3,1.26-1.33,1.9-2.58,1.61
		l-3.14-0.73c-1.25-0.29-1.9-1.33-1.61-2.59l0.2-0.84l2.07,0.49l-0.17,0.73c-0.061,0.27,0.04,0.43,0.31,0.49l2.38,0.56
		c0.261,0.06,0.431-0.04,0.49-0.31l0.271-1.18c0.069-0.26-0.04-0.43-0.301-0.49l-2.77-0.64c-1.24-0.29-1.89-1.33-1.6-2.59
		l0.319-1.38c0.3-1.25,1.33-1.9,2.58-1.61l3.14,0.73c1.261,0.3,1.9,1.33,1.61,2.59l-0.2,0.84l-2.069-0.48l0.17-0.74
		c0.06-0.26-0.04-0.43-0.311-0.49l-2.38-0.55c-0.26-0.06-0.43,0.04-0.49,0.3l-0.27,1.17c-0.061,0.26,0.04,0.43,0.31,0.49l2.761,0.65
		C619.905,7.63,620.545,8.66,620.255,9.92z"/>
	<path fill-rule="evenodd" clip-rule="evenodd" fill="#1C1C1A" d="M630.405,13.12l-0.45,1.36c-0.41,1.22-1.5,1.77-2.71,1.37
		l-3.061-1.01c-1.229-0.4-1.779-1.49-1.37-2.72l0.271-0.82l2.02,0.67l-0.239,0.71c-0.08,0.26,0,0.44,0.26,0.52l2.32,0.77
		c0.26,0.08,0.439,0,0.52-0.26l0.38-1.15c0.09-0.26,0-0.43-0.26-0.52l-2.7-0.89c-1.21-0.4-1.76-1.49-1.36-2.72l0.45-1.34
		c0.4-1.23,1.49-1.78,2.71-1.38l3.061,1.02c1.22,0.4,1.77,1.49,1.37,2.72l-0.271,0.82l-2.02-0.67l0.229-0.72
		c0.09-0.26,0-0.43-0.26-0.52l-2.32-0.76c-0.26-0.09-0.43,0-0.52,0.26l-0.37,1.13c-0.09,0.27,0,0.44,0.26,0.52l2.7,0.9
		C630.255,10.81,630.805,11.9,630.405,13.12z"/>
	<polygon fill-rule="evenodd" clip-rule="evenodd" fill="#1C1C1A" points="635.645,8.72 641.555,11.24 640.825,12.94 636.885,11.26 
		635.925,13.49 639.245,14.91 638.524,16.61 635.205,15.2 633.845,18.39 631.885,17.56 	"/>
	<polygon fill-rule="evenodd" clip-rule="evenodd" fill="#1C1C1A" points="643.905,12.4 645.814,13.35 641.535,21.94 639.635,21 	
		"/>
	<polygon fill-rule="evenodd" clip-rule="evenodd" fill="#1C1C1A" points="648.165,14.51 654.835,18.35 653.915,19.95 
		651.495,18.56 647.635,25.28 645.795,24.22 649.655,17.5 647.245,16.12 	"/>
	<polygon fill-rule="evenodd" clip-rule="evenodd" fill="#1C1C1A" points="672.774,36.84 674.395,38.42 672.814,40.04 
		671.195,38.47 	"/>
	<polygon fill-rule="evenodd" clip-rule="evenodd" fill="#1C1C1A" points="693.415,55.76 697.455,62.3 695.885,63.28 694.425,60.91 
		687.825,64.98 686.705,63.17 693.305,59.1 691.845,56.73 	"/>
	<path fill-rule="evenodd" clip-rule="evenodd" fill="#1C1C1A" d="M699.185,70.46c0.25-0.13,0.311-0.31,0.181-0.56l-1.23-2.42
		l-2.41,1.23l1.23,2.42c0.13,0.24,0.31,0.3,0.56,0.18L699.185,70.46z M695.845,72.85l-2.229,2.83l-1.061-2.08l2.22-2.67l-0.699-1.38
		L691.225,71l-0.96-1.89l8.55-4.36l2.381,4.66c0.579,1.14,0.199,2.31-0.95,2.89l-1.87,0.96
		C697.435,73.73,696.475,73.56,695.845,72.85z"/>
	<path fill-rule="evenodd" clip-rule="evenodd" fill="#1C1C1A" d="M699.195,78.89l0.79,1.96l2.81-2.27L699.195,78.89z
		 M697.665,85.48l-0.83-2.07l1.65-1.33l-1.221-3.02l-2.109,0.19l-0.811-2.01l10.08-0.68l0.98,2.42L697.665,85.48z"/>
	
		<rect x="702.082" y="82.146" transform="matrix(-0.3106 -0.9505 0.9505 -0.3106 838.9258 782.3124)" fill-rule="evenodd" clip-rule="evenodd" fill="#1C1C1A" width="2.125" height="9.598"/>
	<polygon fill-rule="evenodd" clip-rule="evenodd" fill="#1C1C1A" points="705.845,92.82 700.325,94.22 699.805,92.16 709.104,89.8 
		709.595,91.73 704.955,96.56 710.465,95.16 710.995,97.22 701.685,99.58 701.195,97.65 	"/>
	<polygon fill-rule="evenodd" clip-rule="evenodd" fill="#1C1C1A" points="707.615,112.7 707.235,109.32 703.375,109.75 
		703.145,107.63 712.695,106.57 712.925,108.69 709.085,109.11 709.455,112.5 713.305,112.07 713.535,114.18 703.985,115.24 
		703.755,113.13 	"/>
	<path fill-rule="evenodd" clip-rule="evenodd" fill="#1C1C1A" d="M708.095,120.49l0.04,2.11l3.44-1.13L708.095,120.49z
		 M704.325,126.11l-0.04-2.23l2.01-0.66l-0.07-3.25l-2.04-0.58l-0.04-2.17l9.66,2.94l0.061,2.61L704.325,126.11z"/>
	<path fill-rule="evenodd" clip-rule="evenodd" fill="#1C1C1A" d="M711.235,133.81c0.27,0.01,0.42-0.11,0.43-0.39l0.18-2.71
		l-2.7-0.17l-0.17,2.71c-0.02,0.27,0.11,0.42,0.38,0.43L711.235,133.81z M707.135,134.16l-3.36,1.29l0.15-2.32l3.271-1.17l0.1-1.54
		l-3.18-0.21l0.13-2.12l9.58,0.62l-0.33,5.22c-0.09,1.28-1,2.09-2.29,2l-2.101-0.13C708.055,135.73,707.314,135.09,707.135,134.16z"
		/>
	<path fill-rule="evenodd" clip-rule="evenodd" fill="#1C1C1A" d="M709.915,144.57c0.27,0.04,0.42-0.07,0.47-0.34l0.45-2.96
		l-5.83-0.9l-0.46,2.96c-0.04,0.27,0.08,0.43,0.35,0.47L709.915,144.57z M702.655,143.43l0.84-5.44l9.5,1.46l-0.84,5.44
		c-0.2,1.28-1.181,2-2.46,1.8l-5.23-0.81C703.185,145.69,702.465,144.7,702.655,143.43z"/>
	<polygon fill-rule="evenodd" clip-rule="evenodd" fill="#1C1C1A" points="700.675,171.19 699.765,173.27 697.695,172.36 
		698.595,170.29 	"/>
	<path fill-rule="evenodd" clip-rule="evenodd" fill="#1C1C1A" d="M684.495,200.83c0.21,0.16,0.399,0.14,0.569-0.07l1.851-2.36
		l-4.641-3.64l-1.85,2.35c-0.17,0.21-0.14,0.4,0.07,0.57L684.495,200.83z M678.735,196.27l3.399-4.33l7.55,5.94l-3.399,4.32
		c-0.8,1.02-2.011,1.16-3.021,0.36l-4.17-3.27C678.085,198.49,677.935,197.28,678.735,196.27z"/>
	<path fill-rule="evenodd" clip-rule="evenodd" fill="#1C1C1A" d="M677.104,209.13c0.2,0.19,0.4,0.18,0.591-0.02l1.77-1.87
		c0.19-0.2,0.18-0.39-0.02-0.58l-3.681-3.49c-0.2-0.19-0.399-0.19-0.59,0.01l-1.77,1.88c-0.19,0.2-0.181,0.39,0.02,0.58
		L677.104,209.13z M671.795,204.06l2.31-2.44c0.881-0.93,2.101-0.96,3.04-0.07l3.841,3.64c0.939,0.88,0.97,2.1,0.1,3.03l-2.311,2.44
		c-0.89,0.94-2.109,0.97-3.05,0.09l-3.84-3.64C670.945,206.22,670.915,205,671.795,204.06z"/>
	<polygon fill-rule="evenodd" clip-rule="evenodd" fill="#1C1C1A" points="670.475,213.26 666.705,208.99 668.295,207.58 
		674.655,214.78 673.165,216.1 666.745,214.17 670.505,218.44 668.915,219.85 662.564,212.65 664.055,211.33 	"/>
	<polygon fill-rule="evenodd" clip-rule="evenodd" fill="#1C1C1A" points="667.115,223.25 665.325,224.63 663.635,221.08 
		664.774,220.2 	"/>
	<polygon fill-rule="evenodd" clip-rule="evenodd" fill="#1C1C1A" points="662.255,224.99 655.875,229.29 654.845,227.76 
		657.155,226.2 652.814,219.78 654.575,218.59 658.915,225.01 661.225,223.45 	"/>
	<path fill-rule="evenodd" clip-rule="evenodd" fill="#1C1C1A" d="M638.995,231.61l-0.641-1.28c-0.569-1.15-0.189-2.31,0.96-2.88
		l2.881-1.44c1.159-0.58,2.319-0.19,2.89,0.97l0.39,0.77l-1.91,0.95l-0.329-0.68c-0.12-0.24-0.311-0.3-0.551-0.18l-2.189,1.09
		c-0.25,0.12-0.311,0.31-0.19,0.55l0.54,1.08c0.13,0.25,0.311,0.31,0.561,0.19l2.54-1.27c1.14-0.57,2.3-0.18,2.869,0.97l0.641,1.27
		c0.569,1.15,0.18,2.31-0.96,2.88l-2.891,1.44c-1.149,0.57-2.31,0.19-2.89-0.97l-0.38-0.77l1.9-0.95l0.34,0.68
		c0.12,0.24,0.3,0.3,0.55,0.18l2.189-1.09c0.24-0.12,0.301-0.3,0.181-0.55l-0.53-1.07c-0.12-0.24-0.31-0.31-0.55-0.18l-2.55,1.26
		C640.725,233.15,639.564,232.76,638.995,231.61z"/>
	<polygon fill-rule="evenodd" clip-rule="evenodd" fill="#1C1C1A" points="639.125,238.14 631.975,240.99 631.295,239.27 
		633.875,238.24 631.015,231.04 632.995,230.25 635.854,237.45 638.445,236.42 	"/>
	<path fill-rule="evenodd" clip-rule="evenodd" fill="#1C1C1A" d="M623.365,241.35c0.08,0.27,0.25,0.36,0.51,0.28l2.47-0.75
		c0.271-0.08,0.36-0.25,0.28-0.51l-1.47-4.86c-0.08-0.26-0.25-0.35-0.511-0.28l-2.47,0.75c-0.26,0.08-0.36,0.25-0.28,0.51
		L623.365,241.35z M621.274,234.32l3.211-0.97c1.229-0.37,2.3,0.2,2.68,1.44l1.53,5.07c0.369,1.24-0.21,2.31-1.431,2.68l-3.22,0.97
		c-1.23,0.38-2.31-0.2-2.68-1.43l-1.53-5.08C619.455,235.77,620.035,234.69,621.274,234.32z"/>
	<path fill-rule="evenodd" clip-rule="evenodd" fill="#1C1C1A" d="M612.845,243.87c0.061,0.27,0.22,0.37,0.49,0.32l2.66-0.55
		l-0.55-2.65l-2.66,0.55c-0.271,0.06-0.38,0.22-0.32,0.49L612.845,243.87z M612.035,239.81l3.029-0.63l-0.649-3.13l2.08-0.43
		l1.96,9.39l-5.12,1.07c-1.26,0.26-2.28-0.41-2.55-1.67l-0.42-2.06C610.095,241.09,610.765,240.07,612.035,239.81z"/>
	<polygon fill-rule="evenodd" clip-rule="evenodd" fill="#1C1C1A" points="579.475,244.23 577.215,244.02 577.435,241.77 
		579.685,241.98 	"/>
	<polygon fill-rule="evenodd" clip-rule="evenodd" fill="#1C1C1A" points="544.735,235.74 546.945,230.49 548.905,231.31 
		545.185,240.17 543.354,239.4 542.295,232.77 540.085,238.02 538.125,237.2 541.845,228.35 543.675,229.12 	"/>
	<path fill-rule="evenodd" clip-rule="evenodd" fill="#1C1C1A" d="M531.005,231.04c-0.13,0.24-0.07,0.43,0.17,0.56l2.28,1.21
		c0.24,0.13,0.43,0.07,0.56-0.17l2.38-4.48c0.13-0.25,0.07-0.43-0.17-0.56l-2.279-1.21c-0.24-0.13-0.431-0.07-0.561,0.17
		L531.005,231.04z M534.475,224.57l2.971,1.58c1.13,0.6,1.479,1.77,0.88,2.91l-2.49,4.67c-0.6,1.14-1.771,1.5-2.9,0.9l-2.97-1.58
		c-1.14-0.6-1.49-1.77-0.89-2.91l2.489-4.68C532.165,224.33,533.335,223.97,534.475,224.57z"/>
	<path fill-rule="evenodd" clip-rule="evenodd" fill="#1C1C1A" d="M517.075,222.1c-0.16,0.23-0.12,0.42,0.1,0.58l2.2,1.59l1.58-2.2
		l-2.2-1.59c-0.23-0.16-0.42-0.13-0.58,0.1L517.075,222.1z M519.524,218.76l2.511,1.81l1.87-2.6l1.729,1.24l-5.61,7.8l-4.239-3.05
		c-1.05-0.76-1.25-1.96-0.5-3.01l1.229-1.7C517.265,218.2,518.475,218,519.524,218.76z"/>
	<path fill-rule="evenodd" clip-rule="evenodd" fill="#1C1C1A" d="M513.305,214.69l-1.6-1.38l-1.46,3.31L513.305,214.69z
		 M511.635,208.13l1.69,1.46l-0.851,1.94l2.46,2.12l1.79-1.14l1.65,1.42l-8.64,5.23l-1.98-1.7L511.635,208.13z"/>
	
		<rect x="505.026" y="204.55" transform="matrix(0.7142 0.7 -0.7 0.7142 291.1908 -294.406)" fill-rule="evenodd" clip-rule="evenodd" fill="#1C1C1A" width="2.129" height="9.61"/>
	<polygon fill-rule="evenodd" clip-rule="evenodd" fill="#1C1C1A" points="500.985,205.37 505.235,201.59 506.655,203.18 
		499.485,209.56 498.165,208.08 500.055,201.65 495.805,205.43 494.395,203.85 501.555,197.46 502.885,198.95 	"/>
	<polygon fill-rule="evenodd" clip-rule="evenodd" fill="#1C1C1A" points="490.635,192.39 495.365,189.22 496.545,190.99 
		488.575,196.33 487.465,194.68 490.225,188.57 485.495,191.74 484.314,189.97 492.295,184.63 493.395,186.28 	"/>
	<path fill-rule="evenodd" clip-rule="evenodd" fill="#1C1C1A" d="M481.745,180.88c-0.24,0.13-0.29,0.32-0.16,0.56l1.229,2.27
		c0.131,0.24,0.32,0.29,0.561,0.16l4.46-2.43c0.24-0.13,0.29-0.31,0.16-0.55l-1.23-2.27c-0.13-0.24-0.319-0.3-0.56-0.17
		L481.745,180.88z M488.205,177.4l1.609,2.95c0.61,1.12,0.261,2.29-0.869,2.91l-4.65,2.53c-1.13,0.62-2.31,0.27-2.92-0.85
		l-1.601-2.95c-0.619-1.14-0.279-2.31,0.86-2.92l4.65-2.54C486.415,175.92,487.595,176.26,488.205,177.4z"/>
	<path fill-rule="evenodd" clip-rule="evenodd" fill="#1C1C1A" d="M481.075,160.92l0.55,1.47l-0.561,0.53
		c0.561,0.19,1.011,0.65,1.261,1.3l0.699,1.86c0.45,1.19-0.06,2.31-1.26,2.76l-4.96,1.87c-1.2,0.46-2.319-0.05-2.77-1.24
		l-1.181-3.15c-0.449-1.2,0.051-2.32,1.261-2.77l0.93-0.35l0.75,1.98l-0.83,0.32c-0.26,0.1-0.34,0.27-0.24,0.53l0.91,2.41
		c0.09,0.26,0.271,0.34,0.53,0.24l4.75-1.79c0.25-0.09,0.33-0.27,0.24-0.53l-0.91-2.41c-0.101-0.26-0.28-0.34-0.53-0.24l-1.13,0.43
		l0.71,1.89l-1.73,0.66l-1.47-3.89L481.075,160.92z"/>
	<path fill-rule="evenodd" clip-rule="evenodd" fill="#1C1C1A" d="M475.795,156.84l-0.56-2.04l-3.051,1.94L475.795,156.84z
		 M478.064,150.45l0.591,2.16l-1.79,1.14l0.87,3.13l2.119,0.06l0.58,2.09l-10.1-0.47l-0.7-2.51L478.064,150.45z"/>
	<polygon fill-rule="evenodd" clip-rule="evenodd" fill="#1C1C1A" points="468.285,150.39 467.854,148.31 477.265,146.36 
		477.695,148.45 	"/>
	<polygon fill-rule="evenodd" clip-rule="evenodd" fill="#1C1C1A" points="470.765,142.24 476.405,141.47 476.695,143.58 
		467.175,144.88 466.905,142.91 472.064,138.63 466.425,139.4 466.135,137.29 475.655,135.99 475.925,137.96 	"/>
	<polygon fill-rule="evenodd" clip-rule="evenodd" fill="#1C1C1A" points="469.885,110.96 470.155,108.71 472.395,108.98 
		472.135,111.23 	"/>
	<path fill-rule="evenodd" clip-rule="evenodd" fill="#1C1C1A" d="M480.945,82.47l1.46-3.75l1.72,0.68l-2.48,6.36l-1.72-0.67
		l-2.14-5.75c-0.03-0.1-0.12-0.18-0.261-0.23l-1.01-0.39c-0.26-0.1-0.43-0.03-0.529,0.23l-0.641,1.64c-0.1,0.25-0.02,0.43,0.23,0.53
		l1.35,0.52l-0.77,1.98l-1.45-0.56c-1.2-0.46-1.69-1.58-1.23-2.79l0.92-2.36c0.471-1.19,1.591-1.68,2.79-1.22l0.96,0.38
		c0.7,0.27,1.12,0.79,1.33,1.37L480.945,82.47z"/>
	<path fill-rule="evenodd" clip-rule="evenodd" fill="#1C1C1A" d="M480.875,69.09c-0.25-0.12-0.43-0.06-0.55,0.19l-0.9,1.82
		c-0.12,0.25-0.06,0.43,0.19,0.55l4.56,2.24c0.24,0.12,0.43,0.06,0.55-0.19l0.9-1.82c0.12-0.24,0.05-0.43-0.19-0.55L480.875,69.09z
		 M487.455,72.35l-1.25,2.53c-0.561,1.14-1.72,1.54-2.87,0.97l-4.76-2.34c-1.15-0.57-1.551-1.73-0.99-2.87l1.25-2.53
		c0.57-1.15,1.72-1.55,2.88-0.98l4.75,2.34C487.625,70.04,488.024,71.2,487.455,72.35z"/>
	<polygon fill-rule="evenodd" clip-rule="evenodd" fill="#1C1C1A" points="491.745,64.63 490.675,66.47 484.245,62.7 484.485,65.3 
		482.625,64.21 482.385,61.61 483.465,59.77 	"/>
	<path fill-rule="evenodd" clip-rule="evenodd" fill="#1C1C1A" d="M492.845,56.9l-2.74-1.88l1.37,3.87L492.845,56.9z M494.365,57.95
		l-2.66,3.88l-1.53-1.05l-2.53-7.41l1.221-1.78l5.18,3.56l0.62-0.9l1.53,1.04l-0.62,0.91l1.21,0.83l-1.21,1.75L494.365,57.95z"/>
	<polygon fill-rule="evenodd" clip-rule="evenodd" fill="#1C1C1A" points="509.555,34.12 511.265,32.63 512.755,34.33 
		511.045,35.82 	"/>
</g>
</svg>
