<?xml version="1.0" standalone="no"?><!-- Generator: Adobe Fireworks CS6, Export SVG Extension by Aaron Beall (http://fireworks.abeall.com) . Version: 0.6.1  --><!DOCTYPE svg PUBLIC "-//W3C//DTD SVG 1.1//EN" "http://www.w3.org/Graphics/SVG/1.1/DTD/svg11.dtd"><svg id="Untitled-Page%201" viewBox="0 0 40 40" style="background-color:#ffffff00" version="1.1"	xmlns="http://www.w3.org/2000/svg" xmlns:xlink="http://www.w3.org/1999/xlink" xml:space="preserve"	x="0px" y="0px" width="40px" height="40px">	<g id="Layer%201">		<path d="M 30.5912 2.5918 L 9.3014 2.5918 C 5.6031 2.5918 2.5946 5.5996 2.5946 9.2979 L 2.5946 16.3809 L 2.5946 30.5879 C 2.5946 34.2861 5.6031 37.2939 9.3014 37.2939 L 30.5912 37.2939 C 34.2894 37.2939 37.298 34.2861 37.298 30.5879 L 37.298 16.3809 L 37.298 9.2979 C 37.298 5.5996 34.2894 2.5918 30.5912 2.5918 ZM 32.5148 6.5913 L 33.2819 6.5884 L 33.2819 7.3521 L 33.2819 12.4702 L 27.4193 12.4893 L 27.3995 6.6074 L 32.5148 6.5913 ZM 14.9937 16.3809 C 16.1045 14.8428 17.9078 13.8345 19.9463 13.8345 C 21.9847 13.8345 23.7881 14.8428 24.8989 16.3809 C 25.6222 17.3853 26.0549 18.6128 26.0549 19.9434 C 26.0549 23.3101 23.313 26.0498 19.9463 26.0498 C 16.5782 26.0498 13.8384 23.3101 13.8384 19.9434 C 13.8384 18.6128 14.2704 17.3853 14.9937 16.3809 ZM 33.9169 30.5879 C 33.9169 32.4224 32.4253 33.9131 30.5912 33.9131 L 9.3014 33.9131 C 7.4673 33.9131 5.9757 32.4224 5.9757 30.5879 L 5.9757 16.3809 L 11.1559 16.3809 C 10.7089 17.4814 10.4573 18.6836 10.4573 19.9434 C 10.4573 25.1738 14.7134 29.4321 19.9463 29.4321 C 25.1792 29.4321 29.4352 25.1738 29.4352 19.9434 C 29.4352 18.6836 29.1823 17.4814 28.7352 16.3809 L 33.9169 16.3809 L 33.9169 30.5879 Z" fill="#ffffff"/>	</g></svg>