<?xml version="1.0" standalone="no"?><!-- Generator: Adobe Fireworks CS6, Export SVG Extension by Aaron Beall (http://fireworks.abeall.com) . Version: 0.6.1  --><!DOCTYPE svg PUBLIC "-//W3C//DTD SVG 1.1//EN" "http://www.w3.org/Graphics/SVG/1.1/DTD/svg11.dtd"><svg id="Untitled-Page%201" viewBox="0 0 40 40" style="background-color:#ffffff00" version="1.1"	xmlns="http://www.w3.org/2000/svg" xmlns:xlink="http://www.w3.org/1999/xlink" xml:space="preserve"	x="0px" y="0px" width="40px" height="40px">	<g id="Layer%201">		<g>			<path d="M 37.2492 16.9927 L 31.8214 16.9927 L 31.8214 11.6225 C 31.8214 11.2125 31.4855 10.8793 31.0713 10.8793 L 29.5259 10.8793 C 29.1103 10.8793 28.7737 11.2125 28.7737 11.6225 L 28.7737 16.9927 L 23.3458 16.9927 C 22.9323 16.9927 22.595 17.3267 22.595 17.7364 L 22.595 19.2664 C 22.595 19.6769 22.9323 20.0093 23.3458 20.0093 L 28.7737 20.0093 L 28.7737 25.3814 C 28.7737 25.7919 29.1103 26.1243 29.5259 26.1243 L 31.0713 26.1243 C 31.4855 26.1243 31.8214 25.7919 31.8214 25.3814 L 31.8214 20.0093 L 37.2492 20.0093 C 37.6627 20.0093 38 19.6769 38 19.2664 L 38 17.7364 C 38 17.3267 37.6627 16.9927 37.2492 16.9927 Z" fill="#1c1c1a"/>			<path d="M 19.0082 21.7015 C 17.8665 20.902 16.8285 19.7288 16.8101 19.3684 C 16.8101 18.7113 16.8694 18.3978 18.3569 17.2511 C 20.2812 15.7603 21.3404 13.8012 21.3404 11.7312 C 21.3404 9.8543 20.761 8.187 19.7738 7.0158 L 20.5387 7.0158 C 20.6975 7.0158 20.8521 6.9669 20.9798 6.8754 L 23.1151 5.345 C 23.3804 5.1568 23.4912 4.8213 23.3896 4.5144 C 23.2887 4.2087 23.0015 4 22.6755 4 L 13.1266 4 C 12.0816 4 11.0203 4.1819 9.978 4.5369 C 6.4978 5.7248 4.0647 8.6587 4.0647 11.6714 C 4.0647 15.9391 7.4059 19.1741 11.872 19.2761 C 11.7845 19.614 11.7407 19.9472 11.7407 20.2743 C 11.7407 20.9318 11.9094 21.5548 12.2559 22.1565 C 12.2156 22.1573 12.1761 22.1573 12.1331 22.1573 C 7.8759 22.1573 4.033 24.2242 2.5737 27.3009 C 2.1933 28.1005 2 28.9089 2 29.7081 C 2 30.4843 2.2018 31.2323 2.597 31.9341 C 3.5136 33.5568 5.4831 34.8164 8.144 35.4813 C 9.5179 35.825 10.9942 36 12.5268 36 C 13.9043 36 15.2168 35.8235 16.4312 35.4759 C 20.2163 34.3885 22.6627 31.6315 22.6627 28.4481 C 22.6627 25.3939 21.6713 23.5659 19.0082 21.7015 ZM 6.9473 28.6932 C 6.9473 26.4711 9.7995 24.5225 13.0504 24.5225 L 13.1379 24.5229 C 13.845 24.5307 14.5351 24.6347 15.1864 24.8317 C 15.4087 24.9838 15.6246 25.1293 15.8314 25.2682 C 17.3373 26.2834 18.3315 26.9537 18.6088 28.0299 C 18.6737 28.3003 18.7062 28.571 18.7062 28.8337 C 18.7062 31.6004 16.621 33.0032 12.5078 33.0032 C 9.3895 33.0032 6.9473 31.1101 6.9473 28.6932 ZM 9.9054 7.7013 C 10.4134 7.1275 11.0788 6.8246 11.8261 6.8246 L 11.9108 6.8257 C 14.0214 6.8874 16.041 9.2146 16.4129 12.014 C 16.621 13.5816 16.2689 15.055 15.4722 15.9538 C 14.9634 16.5284 14.3072 16.8317 13.5296 16.8317 C 13.5296 16.8317 13.5296 16.8317 13.5281 16.8317 L 13.4943 16.8317 C 11.4267 16.7693 9.3641 14.3528 8.9951 11.5566 C 8.7869 9.994 9.1193 8.5889 9.9054 7.7013 Z" fill="#1c1c1a"/>		</g>	</g></svg>